# xmcd
#
# Track frame offsets: 
#        183
#        19263
#        42483
#        63273
#        87100
#        103658
#        126613
#        149168
#        166585
#        185543
#        212625
#        234298
#
# Disc length: 3452 seconds
#
# Revision: 2
# Processed by: cddbd v1.5.1PL0 Copyright (c) Steve Scherf et al.
# Submitted via: ExactAudioCopy v0.95a4
#
DISCID=a90d7a0c
DTITLE=Vesta Williams - Vesta
DYEAR=1986
DGENRE=R&B
TTITLE0=Something About You
TTITLE1=Sweet Thang
TTITLE2=Don't Blow A Good Thing
TTITLE3=Get Out Of My Life
TTITLE4=I Can Make Your Dreams Come True
TTITLE5=Suddenly It's Magic
TTITLE6=You Make Me Want To (Love Again)
TTITLE7=It's You
TTITLE8=Don't Let Me Down
TTITLE9=Once Bitten Twice Shy
TTITLE10=I'm Coming Back
TTITLE11=My Heart Is Yours
EXTD=
EXTT0=
EXTT1=
EXTT2=
EXTT3=
EXTT4=
EXTT5=
EXTT6=
EXTT7=
EXTT8=
EXTT9=
EXTT10=
EXTT11=
PLAYORDER=
